<?xml version="1.0" encoding="UTF-8" standalone="no"?>
<svg
   xmlns:dc="http://purl.org/dc/elements/1.1/"
   xmlns:cc="http://creativecommons.org/ns#"
   xmlns:rdf="http://www.w3.org/1999/02/22-rdf-syntax-ns#"
   xmlns:svg="http://www.w3.org/2000/svg"
   xmlns="http://www.w3.org/2000/svg"
   xmlns:sodipodi="http://sodipodi.sourceforge.net/DTD/sodipodi-0.dtd"
   xmlns:inkscape="http://www.inkscape.org/namespaces/inkscape"
   version="1.1"
   width="1080"
   height="1080"
   viewBox="0 0 1080 1080"
   xml:space="preserve"
   id="svg14"
   sodipodi:docname="rewind 10.svg"
   inkscape:version="0.92.4 (5da689c313, 2019-01-14)"><metadata
   id="metadata18"><rdf:RDF><cc:Work
       rdf:about=""><dc:format>image/svg+xml</dc:format><dc:type
         rdf:resource="http://purl.org/dc/dcmitype/StillImage" /></cc:Work></rdf:RDF></metadata><sodipodi:namedview
   pagecolor="#ffffff"
   bordercolor="#666666"
   borderopacity="1"
   objecttolerance="10"
   gridtolerance="10"
   guidetolerance="10"
   inkscape:pageopacity="0"
   inkscape:pageshadow="2"
   inkscape:window-width="3840"
   inkscape:window-height="2126"
   id="namedview16"
   showgrid="false"
   inkscape:zoom="1.1402803"
   inkscape:cx="720.76271"
   inkscape:cy="507.9661"
   inkscape:window-x="3829"
   inkscape:window-y="-11"
   inkscape:window-maximized="1"
   inkscape:current-layer="svg14" />
<desc
   id="desc2">Created with Fabric.js 5.2.4</desc>
<defs
   id="defs4">


</defs>

<g
   transform="matrix(1 0 0 1 540 540)"
   id="04b5c041-062e-40d2-af96-688f2de51957">
</g>

<g
   id="g3762"
   transform="translate(-1052.3457,87.44336)"><g
     transform="translate(1434.3945,-88.34375)"
     id="g3756"><path
       inkscape:connector-curvature="0"
       style="opacity:1;fill:#000000;fill-rule:nonzero;stroke:none;stroke-width:4.5;stroke-linecap:butt;stroke-linejoin:miter;stroke-miterlimit:4;stroke-dasharray:none;stroke-dashoffset:0"
       d="m 257.87305,596.64453 c -6.3189,-0.60103 -12.71382,1.60585 -17.34766,6.25586 l -58.5,58.5 30.59961,30.60156 21.59961,-21.60156 v 229.5 l 43.20117,0.45117 V 618.20117 c 0.0215,-8.75286 -5.2427,-16.65336 -13.32812,-20.00586 -2.02136,-0.83812 -4.11831,-1.35043 -6.22461,-1.55078 z"
       id="path3752" /><path
       inkscape:connector-curvature="0"
       style="opacity:1;fill:#000000;fill-rule:nonzero;stroke:none;stroke-width:4.5;stroke-linecap:butt;stroke-linejoin:miter;stroke-miterlimit:4;stroke-dasharray:none;stroke-dashoffset:0"
       d="m 429.52539,596.15039 c -32.92103,1.36426 -62.90715,19.323 -79.65039,47.70117 -38.70038,64.05862 -38.70038,144.29099 0,208.34961 16.74324,28.37817 46.72936,46.33495 79.65039,47.69922 32.92105,-1.36427 62.90715,-19.32105 79.65039,-47.69922 38.7004,-64.05863 38.7004,-144.29099 0,-208.34961 -16.74324,-28.37817 -46.72934,-46.33691 -79.65039,-47.70117 z m 0,43.20117 c 35.1,0 64.79883,49.49922 64.79883,108.44922 0,58.95 -29.24883,108.45117 -64.79883,108.45117 -35.1,0 -64.80078,-49.50117 -64.80078,-108.45117 0,-58.95 29.70078,-108.44922 64.80078,-108.44922 z"
       id="path3750" /></g><path
     id="path10-7"
     d="m 1801.5273,91.056641 c -9.58,1.415039 -15.9082,10.343749 -15.9082,25.249999 v 86.84961 h -585.4492 c -12.1031,0.17874 -21.8721,9.94772 -22.0508,22.05078 v 563.84961 c 0.162,11.8615 9.7382,21.43741 21.5997,21.59961 h 282.1503 V 723.80664 H 1264.9688 V 290.00781 h 520.6503 v 86.84961 c 0,23.85 16.2,32.39961 36,19.34961 l 188.0997,-125.55078 c 13.2109,-6.66039 18.6233,-22.69633 12.1503,-36 -2.5876,-5.28743 -6.8629,-9.56085 -12.1503,-12.14844 L 1821.6191,96.957031 c -7.425,-4.89375 -14.3437,-6.749414 -20.0918,-5.90039 z"
     style="opacity:1;fill:#000000;fill-rule:nonzero;stroke:none;stroke-width:4.5;stroke-linecap:butt;stroke-linejoin:miter;stroke-miterlimit:4;stroke-dasharray:none;stroke-dashoffset:0"
     inkscape:connector-curvature="0" /></g></svg>